# This file uses centimeters as units for non-parametric coordinates.

mtllib tunnel.mtl
g default
v 1405.043945 1817.091797 0.000079
v 1320.309448 1817.091797 480.553375
v 1076.326050 1817.091797 903.144958
v 702.521912 1817.091797 1216.803955
v 243.983215 1817.091797 1383.698242
v -243.983490 1817.091797 1383.698242
v -702.522034 1817.091797 1216.803711
v -1076.326050 1817.091797 903.144958
v -1320.309448 1817.091797 480.553467
v -1405.043945 1817.091797 0.000292
v -1320.309448 1817.091797 -480.553009
v -1076.326294 1817.091797 -903.144470
v -702.522400 1817.091797 -1216.803467
v -243.983902 1817.091797 -1383.697998
v 243.982635 1817.091797 -1383.698242
v 702.521240 1817.091797 -1216.804199
v 1076.325562 1817.091797 -903.145508
v 1320.309082 1817.091797 -480.554230
v 1405.043945 -13183.041016 -0.000000
v 1320.309448 -13183.041016 480.553345
v 1076.326050 -13183.041016 903.144897
v 702.521912 -13183.041016 1216.803833
v 243.983215 -13183.041016 1383.698242
v -243.983490 -13183.041016 1383.698120
v -702.522034 -13183.041016 1216.803711
v -1076.326050 -13183.041016 903.144897
v -1320.309448 -13183.041016 480.553436
v -1405.043945 -13183.041016 0.000212
v -1320.309448 -13183.041016 -480.553040
v -1076.326294 -13183.041016 -903.144531
v -702.522400 -13183.041016 -1216.803467
v -243.983902 -13183.041016 -1383.697998
v 243.982635 -13183.041016 -1383.698364
v 702.521240 -13183.041016 -1216.804199
v 1076.325562 -13183.041016 -903.145569
v 1320.309082 -13183.041016 -480.554260
v -228.512527 -12916.106445 -1295.958496
v -228.512527 -13416.106445 -1295.958496
v -248.220886 -13416.106445 -1407.730225
v -248.220886 -12916.106445 -1407.730225
v 228.512466 -12916.106445 -1295.958496
v 228.512466 -13416.106445 -1295.958496
v 248.220825 -13416.106445 -1407.730225
v 248.220825 -12916.106445 -1407.730225
v 657.975464 -12916.106445 -1139.646729
v 657.975464 -13416.106445 -1139.646729
v 714.723389 -13416.106445 -1237.937012
v 714.723389 -12916.106445 -1237.937012
v 1008.076782 -12916.106445 -845.876709
v 1008.076782 -13416.106445 -845.876709
v 1095.019775 -13416.106445 -918.830566
v 1095.019775 -12916.106445 -918.830566
v 1236.589233 -12916.106445 -450.081543
v 1236.589233 -13416.106445 -450.081543
v 1343.240723 -13416.106445 -488.899414
v 1343.240723 -12916.106445 -488.899414
v 1315.950684 -12916.106445 0.000173
v 1315.950684 -13416.106445 0.000173
v 1429.446777 -13416.106445 0.000189
v 1429.446777 -12916.106445 0.000189
v 1236.589111 -12916.106445 450.081848
v 1236.589111 -13416.106445 450.081848
v 1343.240479 -13416.106445 488.899780
v 1343.240479 -12916.106445 488.899780
v 1008.076599 -12916.106445 845.877014
v 1008.076599 -13416.106445 845.877014
v 1095.019531 -13416.106445 918.830811
v 1095.019531 -12916.106445 918.830811
v 657.975098 -12916.106445 1139.646973
v 657.975098 -13416.106445 1139.646973
v 714.723083 -13416.106445 1237.937378
v 714.723083 -12916.106445 1237.937378
v 228.512100 -12916.106445 1295.958618
v 228.512100 -13416.106445 1295.958618
v 248.220428 -13416.106445 1407.730347
v 248.220428 -12916.106445 1407.730347
v -228.512878 -12916.106445 1295.958374
v -228.512878 -13416.106445 1295.958374
v -248.221298 -13416.106445 1407.730103
v -248.221298 -12916.106445 1407.730103
v -657.975708 -12916.106445 1139.646606
v -657.975708 -13416.106445 1139.646606
v -714.723755 -13416.106445 1237.937012
v -714.723755 -12916.106445 1237.937012
v -1008.076965 -12916.106445 845.876587
v -1008.076965 -13416.106445 845.876587
v -1095.019897 -13416.106445 918.830444
v -1095.019897 -12916.106445 918.830444
v -1236.589233 -12916.106445 450.081543
v -1236.589233 -13416.106445 450.081543
v -1343.240723 -13416.106445 488.899414
v -1343.240723 -12916.106445 488.899414
v -1315.950684 -12916.106445 -0.000071
v -1315.950684 -13416.106445 -0.000071
v -1429.446777 -13416.106445 -0.000071
v -1429.446777 -12916.106445 -0.000071
v -1236.589233 -12916.106445 -450.081665
v -1236.589233 -13416.106445 -450.081665
v -1343.240479 -13416.106445 -488.899567
v -1343.240479 -12916.106445 -488.899567
v -1008.076721 -12916.106445 -845.877014
v -1008.076721 -13416.106445 -845.877014
v -1095.019653 -13416.106445 -918.830811
v -1095.019653 -12916.106445 -918.830811
v -657.975281 -12916.106445 -1139.646851
v -657.975281 -13416.106445 -1139.646851
v -714.723267 -13416.106445 -1237.937378
v -714.723267 -12916.106445 -1237.937378
vt 0.346023 0.000067
vt 0.321324 0.000067
vt 0.296624 0.000067
vt 0.271925 0.000067
vt 0.247225 0.000067
vt 0.222526 0.000067
vt 0.197826 0.000067
vt 0.173127 0.000067
vt 0.148427 0.000067
vt 0.123728 0.000067
vt 0.099028 0.000067
vt 0.074329 0.000067
vt 0.049629 0.000067
vt 0.024930 0.000067
vt 0.444822 0.000067
vt 0.420122 0.000067
vt 0.395423 0.000067
vt 0.370723 0.000067
vt 0.346023 0.444659
vt 0.321324 0.444659
vt 0.296624 0.444659
vt 0.271925 0.444659
vt 0.247225 0.444659
vt 0.222526 0.444659
vt 0.197826 0.444659
vt 0.173127 0.444659
vt 0.148427 0.444659
vt 0.123728 0.444659
vt 0.099028 0.444659
vt 0.074329 0.444659
vt 0.049629 0.444659
vt 0.024930 0.444659
vt 0.444822 0.444659
vt 0.420122 0.444659
vt 0.395423 0.444659
vt 0.370723 0.444659
vt 0.000230 0.000067
vt 0.000230 0.444659
vt 0.497283 0.568395
vt 0.497283 0.548978
vt 0.000471 0.539804
vt -0.000278 0.528488
vt 0.000010 0.569123
vt 0.469655 0.568395
vt 0.469655 0.548978
vt 0.041490 0.539804
vt 0.040710 0.528488
vt 0.027626 0.569123
vt 0.442027 0.568395
vt 0.442027 0.548978
vt 0.082509 0.539804
vt 0.081697 0.528488
vt 0.055241 0.569123
vt 0.414399 0.568395
vt 0.414399 0.548978
vt 0.123528 0.539804
vt 0.122684 0.528488
vt 0.082856 0.569123
vt 0.386771 0.568395
vt 0.386771 0.548978
vt 0.164547 0.539804
vt 0.163672 0.528488
vt 0.110471 0.569123
vt 0.359143 0.568395
vt 0.359143 0.548978
vt 0.205566 0.539804
vt 0.204659 0.528488
vt 0.138086 0.569123
vt 0.331516 0.568395
vt 0.331516 0.548978
vt 0.246585 0.539804
vt 0.245646 0.528488
vt 0.165701 0.569123
vt 0.303888 0.568395
vt 0.303888 0.548978
vt 0.287604 0.539804
vt 0.286634 0.528488
vt 0.193317 0.569123
vt 0.276260 0.568395
vt 0.276260 0.548978
vt 0.328623 0.539804
vt 0.327621 0.528488
vt 0.220932 0.569123
vt 0.248632 0.568395
vt 0.248632 0.548978
vt 0.369642 0.539804
vt 0.368608 0.528488
vt 0.248547 0.569123
vt 0.221004 0.568395
vt 0.221004 0.548978
vt 0.410661 0.539804
vt 0.409595 0.528488
vt 0.276162 0.569123
vt 0.193377 0.568395
vt 0.193377 0.548978
vt 0.451679 0.539804
vt 0.450583 0.528488
vt 0.303777 0.569123
vt 0.165749 0.568395
vt 0.165749 0.548978
vt 0.492699 0.539804
vt 0.491570 0.528488
vt 0.331393 0.569123
vt 0.138121 0.568395
vt 0.138121 0.548978
vt 0.533717 0.539804
vt 0.532557 0.528488
vt 0.359008 0.569123
vt 0.110493 0.568395
vt 0.110493 0.548978
vt 0.574736 0.539804
vt 0.573545 0.528488
vt 0.386623 0.569123
vt 0.082865 0.568395
vt 0.082865 0.548978
vt 0.615755 0.539804
vt 0.614532 0.528488
vt 0.414238 0.569123
vt 0.055238 0.568395
vt 0.055238 0.548978
vt 0.656774 0.539804
vt 0.655519 0.528488
vt 0.441853 0.569123
vt 0.027610 0.568395
vt 0.027610 0.548818
vt 0.697793 0.539514
vt 0.696507 0.528488
vt 0.469469 0.569123
vt -0.000018 0.568395
vt -0.000018 0.548818
vt 0.738812 0.539514
vt 0.737494 0.528488
vt 0.497084 0.569123
vt -0.000014 0.553226
vt -0.000014 0.548970
vt 0.027614 0.553226
vt 0.027614 0.548970
vt 0.055241 0.553226
vt 0.055241 0.548970
vt 0.082868 0.553226
vt 0.082868 0.548970
vt 0.110495 0.553226
vt 0.110495 0.548970
vt 0.138122 0.553226
vt 0.138122 0.548970
vt 0.165750 0.553226
vt 0.165750 0.548970
vt 0.193377 0.553226
vt 0.193377 0.548970
vt 0.221004 0.553226
vt 0.221004 0.548970
vt 0.248631 0.553226
vt 0.248631 0.548970
vt 0.276258 0.553226
vt 0.276258 0.548970
vt 0.303886 0.553226
vt 0.303886 0.548970
vt 0.331513 0.553226
vt 0.331513 0.548970
vt 0.359140 0.553226
vt 0.359140 0.548970
vt 0.386767 0.553226
vt 0.386767 0.548970
vt 0.414394 0.553226
vt 0.414394 0.548970
vt 0.442022 0.553226
vt 0.442022 0.548970
vt 0.469649 0.553210
vt 0.469649 0.548954
vt 0.497276 0.553210
vt 0.497276 0.548954
vt 0.000010 0.563937
vt 0.027640 0.563937
vt 0.055270 0.563937
vt 0.082899 0.563937
vt 0.110529 0.563937
vt 0.138158 0.563937
vt 0.165788 0.563937
vt 0.193418 0.563937
vt 0.221047 0.563937
vt 0.248677 0.563937
vt 0.276306 0.563937
vt 0.303936 0.563937
vt 0.331566 0.563937
vt 0.359195 0.563937
vt 0.386825 0.563937
vt 0.414454 0.563937
vt 0.442084 0.563937
vt 0.469714 0.563937
vt 0.497343 0.563937
vn -1.000000 -0.000000 0.000000
vn -1.000000 -0.000000 0.000000
vn -0.939693 0.000000 -0.342020
vn -0.939693 0.000000 -0.342020
vn -0.939693 0.000000 -0.342020
vn -0.939693 0.000000 -0.342020
vn -0.766044 0.000000 -0.642788
vn -0.766044 0.000000 -0.642788
vn -0.766044 0.000000 -0.642788
vn -0.766044 0.000000 -0.642788
vn -0.500000 0.000000 -0.866025
vn -0.500000 0.000000 -0.866025
vn -0.500000 0.000000 -0.866025
vn -0.500000 0.000000 -0.866025
vn -0.173648 0.000000 -0.984808
vn -0.173648 0.000000 -0.984808
vn -0.173648 0.000000 -0.984808
vn -0.173648 0.000000 -0.984808
vn 0.173648 0.000000 -0.984808
vn 0.173648 0.000000 -0.984808
vn 0.173648 0.000000 -0.984808
vn 0.173648 0.000000 -0.984808
vn 0.500000 0.000000 -0.866025
vn 0.500000 0.000000 -0.866025
vn 0.500000 0.000000 -0.866025
vn 0.500000 0.000000 -0.866025
vn 0.766044 0.000000 -0.642788
vn 0.766044 0.000000 -0.642788
vn 0.766044 0.000000 -0.642788
vn 0.766044 0.000000 -0.642788
vn 0.939693 0.000000 -0.342020
vn 0.939693 0.000000 -0.342020
vn 0.939693 0.000000 -0.342020
vn 0.939693 0.000000 -0.342020
vn 1.000000 0.000000 -0.000000
vn 1.000000 0.000000 -0.000000
vn 1.000000 0.000000 -0.000000
vn 1.000000 0.000000 -0.000000
vn 0.939693 -0.000000 0.342020
vn 0.939693 -0.000000 0.342020
vn 0.939693 -0.000000 0.342020
vn 0.939693 -0.000000 0.342020
vn 0.766045 -0.000000 0.642787
vn 0.766045 -0.000000 0.642787
vn 0.766045 -0.000000 0.642787
vn 0.766045 -0.000000 0.642787
vn 0.500000 -0.000000 0.866025
vn 0.500000 -0.000000 0.866025
vn 0.500000 -0.000000 0.866025
vn 0.500000 -0.000000 0.866025
vn 0.173649 -0.000000 0.984808
vn 0.173649 -0.000000 0.984808
vn 0.173649 -0.000000 0.984808
vn 0.173649 -0.000000 0.984808
vn -0.173648 -0.000000 0.984808
vn -0.173648 -0.000000 0.984808
vn -0.173648 -0.000000 0.984808
vn -0.173648 -0.000000 0.984808
vn -0.500000 -0.000000 0.866026
vn -0.500000 -0.000000 0.866026
vn -0.500000 -0.000000 0.866026
vn -0.500000 -0.000000 0.866026
vn -0.766044 -0.000000 0.642788
vn -0.766044 -0.000000 0.642788
vn -0.766044 -0.000000 0.642788
vn -0.766044 -0.000000 0.642788
vn -0.939693 -0.000000 0.342021
vn -0.939693 -0.000000 0.342021
vn -0.939693 -0.000000 0.342021
vn -0.939693 -0.000000 0.342021
vn -1.000000 -0.000000 0.000000
vn -1.000000 -0.000000 0.000000
vn 0.173648 -0.000000 0.984808
vn 0.173648 -0.000000 0.984808
vn -0.173648 -0.000000 0.984808
vn -0.173648 -0.000000 0.984808
vn 0.000000 -1.000000 -0.000000
vn 0.000000 -1.000000 -0.000000
vn 0.000000 -1.000000 -0.000000
vn 0.000000 -1.000000 -0.000000
vn -0.173648 0.000000 -0.984808
vn -0.173648 0.000000 -0.984808
vn 0.173648 0.000000 -0.984808
vn 0.173648 0.000000 -0.984808
vn 0.000000 1.000000 0.000000
vn 0.000000 1.000000 0.000000
vn 0.000000 1.000000 0.000000
vn 0.000000 1.000000 0.000000
vn -0.173648 -0.000000 0.984808
vn -0.173648 -0.000000 0.984808
vn -0.500000 -0.000000 0.866025
vn -0.500000 -0.000000 0.866025
vn 0.000000 -1.000000 -0.000000
vn 0.000000 -1.000000 -0.000000
vn 0.000000 -1.000000 -0.000000
vn 0.000000 -1.000000 -0.000000
vn 0.173648 0.000000 -0.984808
vn 0.173648 0.000000 -0.984808
vn 0.500000 0.000000 -0.866025
vn 0.500000 0.000000 -0.866025
vn 0.000000 1.000000 0.000000
vn 0.000000 1.000000 0.000000
vn 0.000000 1.000000 0.000000
vn 0.000000 1.000000 0.000000
vn -0.500000 -0.000000 0.866025
vn -0.500000 -0.000000 0.866025
vn -0.766045 -0.000000 0.642788
vn -0.766045 -0.000000 0.642788
vn 0.000000 -1.000000 -0.000000
vn 0.000000 -1.000000 -0.000000
vn 0.000000 -1.000000 -0.000000
vn 0.000000 -1.000000 -0.000000
vn 0.500000 0.000000 -0.866025
vn 0.500000 0.000000 -0.866025
vn 0.766044 0.000000 -0.642788
vn 0.766044 0.000000 -0.642788
vn 0.000000 1.000000 0.000000
vn 0.000000 1.000000 0.000000
vn 0.000000 1.000000 0.000000
vn 0.000000 1.000000 0.000000
vn -0.766045 -0.000000 0.642788
vn -0.766045 -0.000000 0.642788
vn -0.939693 -0.000000 0.342020
vn -0.939693 -0.000000 0.342020
vn 0.000000 -1.000000 -0.000000
vn 0.000000 -1.000000 -0.000000
vn 0.000000 -1.000000 -0.000000
vn 0.000000 -1.000000 -0.000000
vn 0.766044 0.000000 -0.642788
vn 0.766044 0.000000 -0.642788
vn 0.939693 0.000000 -0.342020
vn 0.939693 0.000000 -0.342020
vn 0.000000 1.000000 0.000000
vn 0.000000 1.000000 0.000000
vn 0.000000 1.000000 0.000000
vn 0.000000 1.000000 0.000000
vn -0.939693 -0.000000 0.342020
vn -0.939693 -0.000000 0.342020
vn -1.000000 0.000000 -0.000000
vn -1.000000 0.000000 -0.000000
vn 0.000000 -1.000000 -0.000000
vn 0.000000 -1.000000 -0.000000
vn 0.000000 -1.000000 -0.000000
vn 0.000000 -1.000000 -0.000000
vn 0.939693 0.000000 -0.342020
vn 0.939693 0.000000 -0.342020
vn 1.000000 -0.000000 0.000000
vn 1.000000 -0.000000 0.000000
vn 0.000000 1.000000 0.000000
vn 0.000000 1.000000 0.000000
vn 0.000000 1.000000 0.000000
vn 0.000000 1.000000 0.000000
vn -1.000000 0.000000 -0.000000
vn -1.000000 0.000000 -0.000000
vn -0.939693 0.000000 -0.342020
vn -0.939693 0.000000 -0.342020
vn 0.000000 -1.000000 -0.000000
vn 0.000000 -1.000000 -0.000000
vn 0.000000 -1.000000 -0.000000
vn 0.000000 -1.000000 -0.000000
vn 1.000000 -0.000000 0.000000
vn 1.000000 -0.000000 0.000000
vn 0.939693 -0.000000 0.342020
vn 0.939693 -0.000000 0.342020
vn 0.000000 1.000000 0.000000
vn 0.000000 1.000000 0.000000
vn 0.000000 1.000000 0.000000
vn 0.000000 1.000000 0.000000
vn -0.939693 0.000000 -0.342020
vn -0.939693 0.000000 -0.342020
vn -0.766044 0.000000 -0.642788
vn -0.766044 0.000000 -0.642788
vn 0.000000 -1.000000 -0.000000
vn 0.000000 -1.000000 -0.000000
vn 0.000000 -1.000000 -0.000000
vn 0.000000 -1.000000 -0.000000
vn 0.939693 -0.000000 0.342020
vn 0.939693 -0.000000 0.342020
vn 0.766044 -0.000000 0.642788
vn 0.766044 -0.000000 0.642788
vn 0.000000 1.000000 0.000000
vn 0.000000 1.000000 0.000000
vn 0.000000 1.000000 0.000000
vn 0.000000 1.000000 0.000000
vn -0.766044 0.000000 -0.642788
vn -0.766044 0.000000 -0.642788
vn -0.500000 0.000000 -0.866026
vn -0.500000 0.000000 -0.866026
vn 0.000000 -1.000000 -0.000000
vn 0.000000 -1.000000 -0.000000
vn 0.000000 -1.000000 -0.000000
vn 0.000000 -1.000000 -0.000000
vn 0.766044 -0.000000 0.642788
vn 0.766044 -0.000000 0.642788
vn 0.500000 -0.000000 0.866026
vn 0.500000 -0.000000 0.866026
vn 0.000000 1.000000 0.000000
vn 0.000000 1.000000 0.000000
vn 0.000000 1.000000 0.000000
vn 0.000000 1.000000 0.000000
vn -0.500000 0.000000 -0.866026
vn -0.500000 0.000000 -0.866026
vn -0.173648 0.000000 -0.984808
vn -0.173648 0.000000 -0.984808
vn 0.000000 -1.000000 -0.000000
vn 0.000000 -1.000000 -0.000000
vn 0.000000 -1.000000 -0.000000
vn 0.000000 -1.000000 -0.000000
vn 0.500000 -0.000000 0.866026
vn 0.500000 -0.000000 0.866026
vn 0.173648 -0.000000 0.984808
vn 0.173648 -0.000000 0.984808
vn 0.000000 1.000000 0.000000
vn 0.000000 1.000000 0.000000
vn 0.000000 1.000000 0.000000
vn 0.000000 1.000000 0.000000
vn -0.173648 0.000000 -0.984808
vn -0.173648 0.000000 -0.984808
vn 0.173649 0.000000 -0.984808
vn 0.173649 0.000000 -0.984808
vn 0.000000 -1.000000 -0.000000
vn 0.000000 -1.000000 -0.000000
vn 0.000000 -1.000000 -0.000000
vn 0.000000 -1.000000 -0.000000
vn 0.173648 -0.000000 0.984808
vn 0.173648 -0.000000 0.984808
vn -0.173649 -0.000000 0.984808
vn -0.173649 -0.000000 0.984808
vn 0.000000 1.000000 0.000000
vn 0.000000 1.000000 0.000000
vn 0.000000 1.000000 0.000000
vn 0.000000 1.000000 0.000000
vn 0.173649 0.000000 -0.984808
vn 0.173649 0.000000 -0.984808
vn 0.500000 0.000000 -0.866025
vn 0.500000 0.000000 -0.866025
vn 0.000000 -1.000000 -0.000000
vn 0.000000 -1.000000 -0.000000
vn 0.000000 -1.000000 -0.000000
vn 0.000000 -1.000000 -0.000000
vn -0.173649 -0.000000 0.984808
vn -0.173649 -0.000000 0.984808
vn -0.500000 -0.000000 0.866025
vn -0.500000 -0.000000 0.866025
vn 0.000000 1.000000 0.000000
vn 0.000000 1.000000 0.000000
vn 0.000000 1.000000 0.000000
vn 0.000000 1.000000 0.000000
vn 0.500000 0.000000 -0.866025
vn 0.500000 0.000000 -0.866025
vn 0.766045 0.000000 -0.642787
vn 0.766045 0.000000 -0.642787
vn 0.000000 -1.000000 -0.000000
vn 0.000000 -1.000000 -0.000000
vn 0.000000 -1.000000 -0.000000
vn 0.000000 -1.000000 -0.000000
vn -0.500000 -0.000000 0.866025
vn -0.500000 -0.000000 0.866025
vn -0.766045 -0.000000 0.642788
vn -0.766045 -0.000000 0.642788
vn 0.000000 1.000000 0.000000
vn 0.000000 1.000000 0.000000
vn 0.000000 1.000000 0.000000
vn 0.000000 1.000000 0.000000
vn 0.766045 0.000000 -0.642787
vn 0.766045 0.000000 -0.642787
vn 0.939693 0.000000 -0.342020
vn 0.939693 0.000000 -0.342020
vn 0.000000 -1.000000 -0.000000
vn 0.000000 -1.000000 -0.000000
vn 0.000000 -1.000000 -0.000000
vn 0.000000 -1.000000 -0.000000
vn -0.766045 -0.000000 0.642788
vn -0.766045 -0.000000 0.642788
vn -0.939693 -0.000000 0.342020
vn -0.939693 -0.000000 0.342020
vn 0.000000 1.000000 0.000000
vn 0.000000 1.000000 0.000000
vn 0.000000 1.000000 0.000000
vn 0.000000 1.000000 0.000000
vn 0.939693 0.000000 -0.342020
vn 0.939693 0.000000 -0.342020
vn 1.000000 -0.000000 0.000000
vn 1.000000 -0.000000 0.000000
vn 0.000000 -1.000000 -0.000000
vn 0.000000 -1.000000 -0.000000
vn 0.000000 -1.000000 -0.000000
vn 0.000000 -1.000000 -0.000000
vn -0.939693 -0.000000 0.342020
vn -0.939693 -0.000000 0.342020
vn -1.000000 0.000000 -0.000000
vn -1.000000 0.000000 -0.000000
vn 0.000000 1.000000 0.000000
vn 0.000000 1.000000 0.000000
vn 0.000000 1.000000 0.000000
vn 0.000000 1.000000 0.000000
vn 1.000000 -0.000000 0.000000
vn 1.000000 -0.000000 0.000000
vn 0.939693 -0.000000 0.342020
vn 0.939693 -0.000000 0.342020
vn 0.000000 -1.000000 -0.000000
vn 0.000000 -1.000000 -0.000000
vn 0.000000 -1.000000 -0.000000
vn 0.000000 -1.000000 -0.000000
vn -1.000000 0.000000 -0.000000
vn -1.000000 0.000000 -0.000000
vn -0.939693 0.000000 -0.342020
vn -0.939693 0.000000 -0.342020
vn 0.000000 1.000000 0.000000
vn 0.000000 1.000000 0.000000
vn 0.000000 1.000000 0.000000
vn 0.000000 1.000000 0.000000
vn 0.939693 -0.000000 0.342020
vn 0.939693 -0.000000 0.342020
vn 0.766044 -0.000000 0.642788
vn 0.766044 -0.000000 0.642788
vn 0.000000 -1.000000 -0.000000
vn 0.000000 -1.000000 -0.000000
vn 0.000000 -1.000000 -0.000000
vn 0.000000 -1.000000 -0.000000
vn -0.939693 0.000000 -0.342020
vn -0.939693 0.000000 -0.342020
vn -0.766045 0.000000 -0.642788
vn -0.766045 0.000000 -0.642788
vn 0.000000 1.000000 0.000000
vn 0.000000 1.000000 0.000000
vn 0.000000 1.000000 0.000000
vn 0.000000 1.000000 0.000000
vn 0.766044 -0.000000 0.642788
vn 0.766044 -0.000000 0.642788
vn 0.500000 -0.000000 0.866026
vn 0.500000 -0.000000 0.866026
vn 0.000000 -1.000000 -0.000000
vn 0.000000 -1.000000 -0.000000
vn 0.000000 -1.000000 -0.000000
vn 0.000000 -1.000000 -0.000000
vn -0.766045 0.000000 -0.642788
vn -0.766045 0.000000 -0.642788
vn -0.500000 0.000000 -0.866026
vn -0.500000 0.000000 -0.866026
vn 0.000000 1.000000 0.000000
vn 0.000000 1.000000 0.000000
vn 0.000000 1.000000 0.000000
vn 0.000000 1.000000 0.000000
vn 0.500000 -0.000000 0.866026
vn 0.500000 -0.000000 0.866026
vn 0.173648 -0.000000 0.984808
vn 0.173648 -0.000000 0.984808
vn 0.000000 -1.000000 -0.000000
vn 0.000000 -1.000000 -0.000000
vn 0.000000 -1.000000 -0.000000
vn 0.000000 -1.000000 -0.000000
vn -0.500000 0.000000 -0.866026
vn -0.500000 0.000000 -0.866026
vn -0.173648 0.000000 -0.984808
vn -0.173648 0.000000 -0.984808
vn 0.000000 1.000000 0.000000
vn 0.000000 1.000000 0.000000
vn 0.000000 1.000000 0.000000
vn 0.000000 1.000000 0.000000
s off
g ModuleFBXASC0321
usemtl ModuleFBXASC0321SG
f 1/1/1 19/19/2 20/20/3 2/2/4
f 2/2/5 20/20/6 21/21/7 3/3/8
f 3/3/9 21/21/10 22/22/11 4/4/12
f 4/4/13 22/22/14 23/23/15 5/5/16
f 5/5/17 23/23/18 24/24/19 6/6/20
f 6/6/21 24/24/22 25/25/23 7/7/24
f 7/7/25 25/25/26 26/26/27 8/8/28
f 8/8/29 26/26/30 27/27/31 9/9/32
f 9/9/33 27/27/34 28/28/35 10/10/36
f 10/10/37 28/28/38 29/29/39 11/11/40
f 11/11/41 29/29/42 30/30/43 12/12/44
f 12/12/45 30/30/46 31/31/47 13/13/48
f 13/13/49 31/31/50 32/32/51 14/14/52
f 14/14/53 32/32/54 33/38/55 15/37/56
f 15/15/57 33/33/58 34/34/59 16/16/60
f 16/16/61 34/34/62 35/35/63 17/17/64
f 17/17/65 35/35/66 36/36/67 18/18/68
f 18/18/69 36/36/70 19/19/71 1/1/72
f 37/39/73 38/40/74 42/45/75 41/44/76
f 38/134/77 39/135/78 43/137/79 42/136/80
f 39/41/81 40/42/82 44/47/83 43/46/84
f 40/172/85 37/43/86 41/48/87 44/173/88
f 41/44/89 42/45/90 46/50/91 45/49/92
f 42/136/93 43/137/94 47/139/95 46/138/96
f 43/46/97 44/47/98 48/52/99 47/51/100
f 44/173/101 41/48/102 45/53/103 48/174/104
f 45/49/105 46/50/106 50/55/107 49/54/108
f 46/138/109 47/139/110 51/141/111 50/140/112
f 47/51/113 48/52/114 52/57/115 51/56/116
f 48/174/117 45/53/118 49/58/119 52/175/120
f 49/54/121 50/55/122 54/60/123 53/59/124
f 50/140/125 51/141/126 55/143/127 54/142/128
f 51/56/129 52/57/130 56/62/131 55/61/132
f 52/175/133 49/58/134 53/63/135 56/176/136
f 53/59/137 54/60/138 58/65/139 57/64/140
f 54/142/141 55/143/142 59/145/143 58/144/144
f 55/61/145 56/62/146 60/67/147 59/66/148
f 56/176/149 53/63/150 57/68/151 60/177/152
f 57/64/153 58/65/154 62/70/155 61/69/156
f 58/144/157 59/145/158 63/147/159 62/146/160
f 59/66/161 60/67/162 64/72/163 63/71/164
f 60/177/165 57/68/166 61/73/167 64/178/168
f 61/69/169 62/70/170 66/75/171 65/74/172
f 62/146/173 63/147/174 67/149/175 66/148/176
f 63/71/177 64/72/178 68/77/179 67/76/180
f 64/178/181 61/73/182 65/78/183 68/179/184
f 65/74/185 66/75/186 70/80/187 69/79/188
f 66/148/189 67/149/190 71/151/191 70/150/192
f 67/76/193 68/77/194 72/82/195 71/81/196
f 68/179/197 65/78/198 69/83/199 72/180/200
f 69/79/201 70/80/202 74/85/203 73/84/204
f 70/150/205 71/151/206 75/153/207 74/152/208
f 71/81/209 72/82/210 76/87/211 75/86/212
f 72/180/213 69/83/214 73/88/215 76/181/216
f 73/84/217 74/85/218 78/90/219 77/89/220
f 74/152/221 75/153/222 79/155/223 78/154/224
f 75/86/225 76/87/226 80/92/227 79/91/228
f 76/181/229 73/88/230 77/93/231 80/182/232
f 77/89/233 78/90/234 82/95/235 81/94/236
f 78/154/237 79/155/238 83/157/239 82/156/240
f 79/91/241 80/92/242 84/97/243 83/96/244
f 80/182/245 77/93/246 81/98/247 84/183/248
f 81/94/249 82/95/250 86/100/251 85/99/252
f 82/156/253 83/157/254 87/159/255 86/158/256
f 83/96/257 84/97/258 88/102/259 87/101/260
f 84/183/261 81/98/262 85/103/263 88/184/264
f 85/99/265 86/100/266 90/105/267 89/104/268
f 86/158/269 87/159/270 91/161/271 90/160/272
f 87/101/273 88/102/274 92/107/275 91/106/276
f 88/184/277 85/103/278 89/108/279 92/185/280
f 89/104/281 90/105/282 94/110/283 93/109/284
f 90/160/285 91/161/286 95/163/287 94/162/288
f 91/106/289 92/107/290 96/112/291 95/111/292
f 92/185/293 89/108/294 93/113/295 96/186/296
f 93/109/297 94/110/298 98/115/299 97/114/300
f 94/162/301 95/163/302 99/165/303 98/164/304
f 95/111/305 96/112/306 100/117/307 99/116/308
f 96/186/309 93/113/310 97/118/311 100/187/312
f 97/114/313 98/115/314 102/120/315 101/119/316
f 98/164/317 99/165/318 103/167/319 102/166/320
f 99/116/321 100/117/322 104/122/323 103/121/324
f 100/187/325 97/118/326 101/123/327 104/188/328
f 101/119/329 102/120/330 106/125/331 105/124/332
f 102/166/333 103/167/334 107/169/335 106/168/336
f 103/121/337 104/122/338 108/127/339 107/126/340
f 104/188/341 101/123/342 105/128/343 108/189/344
f 105/124/345 106/125/346 38/130/347 37/129/348
f 106/168/349 107/169/350 39/171/351 38/170/352
f 107/126/353 108/127/354 40/132/355 39/131/356
f 108/189/357 105/128/358 37/133/359 40/190/360
